<svg width="640" height="383" viewBox="0 0 640 383" fill="none" xmlns="http://www.w3.org/2000/svg">
<g clip-path="url(#clip0_10_63)">
<path d="M475.02 255.105C470.437 258.983 461.723 263.971 451.432 269.178C423.451 283.339 383.81 299.179 383.81 299.179C383.81 299.179 183.917 391.298 6.2908 383.93C6.2908 383.93 -20.4671 380.326 -5.39487 356.882C-3.04763 353.344 -0.393152 350.02 2.53777 346.948L2.69971 346.601C4.27288 343.546 6.11619 340.639 8.20757 337.912C14.3265 329.824 25.6067 318.771 43.0685 315.564L472.689 233.527C472.689 233.527 492.066 240.658 475.02 255.105Z" fill="#002243"/>
<path d="M383.352 254.78L446.35 163.589L486.141 156.44L472.689 233.527C472.689 233.527 388.194 265.048 383.352 254.78Z" fill="#002243"/>
<path d="M156.186 295.99L308.097 186.952L337.443 182.728L273.534 244.932L259.379 280.355L156.186 295.99Z" fill="#002243"/>
<path d="M451.431 269.178C423.451 283.339 383.81 299.179 383.81 299.179C383.81 299.179 183.917 391.298 6.29065 383.93C6.29065 383.93 -20.4673 380.326 -5.39501 356.882L-5.21805 357.149C-5.21805 357.149 36.3171 367.551 202.428 328.395L451.431 269.178Z" fill="#004D98"/>
<path d="M423.764 277.775L510.646 281.137L528.881 272.112L471.258 254.566C471.258 254.566 412.283 262.804 423.764 277.775Z" fill="#002243"/>
<path d="M23.4106 350.467C19.8237 351.84 9.35207 348.795 2.72676 346.591C4.29992 343.536 6.14323 340.629 8.23461 337.903C13.5375 339.575 22.7857 342.04 26.8143 340.347C32.6477 337.947 28.8096 348.391 23.4106 350.467Z" fill="#004D98"/>
<path d="M429.378 396.661L381.739 416.878L211.681 374.485L180.11 366.611L164.776 362.783C180.773 334.866 284.807 327.474 284.807 327.474C287.165 328.34 288.661 330.662 289.597 333.488C291.346 338.78 291.123 345.822 290.979 348.378C290.949 349.003 290.913 349.341 290.913 349.341L429.378 396.661Z" fill="#002243"/>
<path d="M487.36 313.506L480.876 321.905L482.601 310.764C480.736 310.136 478.715 310.148 476.858 310.798L476.722 310.847C476.142 311.071 475.542 311.24 474.93 311.352L472.739 314.2L473.149 311.534C470.872 311.56 468.645 310.867 466.784 309.555L462.869 314.662L463.953 307.627C459.669 305.129 454.85 304.397 450.423 306.008C445.119 307.939 441.542 312.813 440.282 318.844C439.914 320.647 439.075 322.32 437.85 323.693C436.625 325.066 435.059 326.09 433.31 326.66L433.028 326.763C427.171 328.895 424.841 337.261 427.823 345.456C430.806 353.65 437.969 358.562 443.826 356.43C445.111 355.958 446.262 355.178 447.178 354.16C448.82 352.467 450.81 351.15 453.011 350.3C455.211 349.451 457.57 349.089 459.924 349.239C461.919 349.381 463.923 349.1 465.803 348.416C467.683 347.731 469.398 346.659 470.836 345.267C472.532 343.662 474.553 342.439 476.762 341.683C478.971 340.926 481.317 340.653 483.641 340.883C484.985 341.061 486.352 340.915 487.628 340.457C493.485 338.325 495.815 329.958 492.833 321.764C491.728 318.597 489.846 315.757 487.36 313.506Z" fill="#F2F2F2"/>
<path opacity="0.03" d="M479.412 340.98C476.142 341.514 473.104 343.009 470.685 345.273C469.249 346.666 467.535 347.74 465.655 348.424C463.776 349.108 461.773 349.387 459.778 349.243C457.424 349.09 455.064 349.451 452.863 350.3C450.663 351.15 448.673 352.469 447.033 354.164C446.113 355.182 444.961 355.961 443.675 356.436C438.473 358.329 432.235 354.659 428.818 348.071C429.584 346.936 430.121 345.663 430.399 344.322C431.66 338.296 435.237 333.422 440.542 331.492C445.846 329.561 451.646 330.948 456.467 334.718C457.914 335.86 459.633 336.608 461.456 336.888C463.278 337.168 465.142 336.971 466.866 336.315L467.001 336.266C471.11 334.758 475.904 336.77 479.412 340.98Z" fill="black"/>
<path d="M422.66 135.742L416.175 144.141L417.9 133C416.035 132.372 414.014 132.384 412.157 133.034L412.022 133.083C411.441 133.307 410.841 133.476 410.23 133.588L408.038 136.436L408.449 133.77C406.172 133.796 403.944 133.103 402.083 131.79L398.168 136.898L399.252 129.862C394.968 127.365 390.149 126.633 385.722 128.244C380.418 130.175 376.841 135.049 375.582 141.08C375.214 142.883 374.374 144.556 373.15 145.929C371.925 147.302 370.358 148.326 368.609 148.896L368.327 148.999C362.47 151.131 360.14 159.497 363.123 167.692C366.105 175.886 373.268 180.798 379.125 178.666C380.411 178.193 381.561 177.414 382.478 176.396C384.12 174.703 386.11 173.386 388.31 172.536C390.51 171.686 392.869 171.324 395.223 171.475C397.218 171.621 399.222 171.346 401.104 170.666C402.986 169.987 404.704 168.918 406.145 167.53C407.841 165.925 409.862 164.702 412.071 163.946C414.28 163.189 416.626 162.916 418.95 163.146C420.294 163.324 421.661 163.178 422.937 162.72C428.794 160.588 431.124 152.221 428.142 144.027C427.038 140.849 425.153 138 422.66 135.742Z" fill="#F2F2F2"/>
<path opacity="0.03" d="M414.711 163.216C411.441 163.75 408.403 165.245 405.984 167.509C404.548 168.902 402.834 169.975 400.955 170.66C399.075 171.344 397.072 171.623 395.077 171.479C392.723 171.326 390.363 171.687 388.162 172.536C385.962 173.386 383.972 174.704 382.332 176.4C381.412 177.417 380.26 178.197 378.974 178.672C373.772 180.565 367.534 176.895 364.117 170.307C364.883 169.172 365.42 167.898 365.698 166.558C366.959 160.532 370.536 155.658 375.841 153.728C381.145 151.797 386.945 153.184 391.766 156.953C393.213 158.096 394.932 158.844 396.755 159.124C398.578 159.404 400.442 159.206 402.165 158.551L402.3 158.502C406.409 156.994 411.203 159.006 414.711 163.216Z" fill="black"/>
<path d="M67.8153 243.173L64.5847 247.363L65.4467 241.808C64.5164 241.491 63.5069 241.495 62.5796 241.82L62.5145 241.844C62.2235 241.953 61.9238 242.037 61.6185 242.096L60.5264 243.512L60.7387 242.208C59.6029 242.221 58.4917 241.876 57.5633 241.221L55.6139 243.772L56.1762 240.259C55.182 239.631 54.0603 239.232 52.8927 239.092C51.7251 238.953 50.541 239.075 49.4268 239.451C46.7826 240.413 44.9978 242.843 44.3905 245.844C44.207 246.745 43.7873 247.582 43.1743 248.268C42.5614 248.953 41.7772 249.464 40.9021 249.747L40.7612 249.798C37.8408 250.861 36.6802 255.04 38.1676 259.126C39.6549 263.212 43.2279 265.662 46.1484 264.599C46.7899 264.363 47.3646 263.975 47.8229 263.468C48.6412 262.622 49.6338 261.964 50.7319 261.54C51.83 261.116 53.0072 260.936 54.1819 261.012C55.1728 261.081 56.167 260.941 57.1004 260.601C58.0337 260.262 58.8853 259.73 59.6002 259.04C60.4461 258.239 61.4546 257.629 62.5572 257.252C63.6599 256.875 64.8308 256.74 65.9903 256.855C66.6593 256.942 67.3392 256.869 67.9746 256.643C70.895 255.58 72.0576 251.407 70.5702 247.32C70.0143 245.729 69.0669 244.303 67.8153 243.173Z" fill="#F2F2F2"/>
<path opacity="0.03" d="M63.8512 256.879C62.2178 257.142 60.7007 257.889 59.4957 259.023C58.7793 259.711 57.928 260.242 56.9956 260.583C56.0519 260.927 55.0458 261.065 54.0444 260.989C52.8698 260.914 51.693 261.096 50.5954 261.521C49.4978 261.945 48.5056 262.604 47.6874 263.45C47.2309 263.956 46.658 264.344 46.0182 264.579C43.4229 265.524 40.3082 263.693 38.604 260.41C38.9834 259.841 39.2519 259.206 39.3954 258.538C40.0189 255.531 41.8038 253.101 44.4317 252.145C47.0596 251.188 49.9718 251.89 52.3815 253.756C53.105 254.327 53.9644 254.7 54.8754 254.839C55.7864 254.977 56.7178 254.877 57.5781 254.547L57.6485 254.521C59.6912 253.778 62.0991 254.779 63.8512 256.879Z" fill="black"/>
<path d="M538.135 372.12L534.904 376.309L535.766 370.754C534.836 370.437 533.827 370.442 532.899 370.766L532.834 370.79C532.543 370.899 532.243 370.984 531.938 371.043L530.846 372.459L531.058 371.154C529.922 371.168 528.811 370.823 527.883 370.168L525.933 372.719L526.496 369.206C525.502 368.577 524.38 368.179 523.212 368.039C522.045 367.899 520.861 368.021 519.746 368.397C517.102 369.36 515.317 371.789 514.71 374.79C514.527 375.692 514.107 376.528 513.494 377.214C512.881 377.9 512.097 378.41 511.222 378.693L511.081 378.744C508.16 379.807 507 383.986 508.487 388.072C509.974 392.159 513.547 394.608 516.468 393.545C517.109 393.31 517.684 392.921 518.142 392.414C518.961 391.568 519.953 390.91 521.051 390.486C522.15 390.062 523.327 389.882 524.501 389.959C525.492 390.027 526.487 389.887 527.42 389.548C528.353 389.208 529.205 388.676 529.92 387.987C530.766 387.185 531.774 386.575 532.877 386.198C533.979 385.821 535.15 385.686 536.31 385.802C536.979 385.888 537.659 385.815 538.294 385.589C541.215 384.526 542.377 380.353 540.89 376.267C540.334 374.675 539.386 373.249 538.135 372.12Z" fill="#F2F2F2"/>
<path opacity="0.03" d="M534.171 385.825C532.537 386.089 531.02 386.835 529.815 387.969C529.099 388.657 528.248 389.188 527.315 389.53C526.371 389.873 525.365 390.011 524.364 389.935C523.189 389.86 522.013 390.042 520.915 390.467C519.817 390.892 518.825 391.55 518.007 392.396C517.55 392.902 516.978 393.29 516.338 393.525C513.742 394.47 510.628 392.639 508.924 389.356C509.303 388.788 509.571 388.153 509.715 387.484C510.338 384.477 512.123 382.048 514.751 381.091C517.379 380.135 520.291 380.836 522.701 382.703C523.425 383.273 524.284 383.647 525.195 383.785C526.106 383.924 527.037 383.823 527.898 383.493L527.968 383.468C530.011 382.724 532.419 383.726 534.171 385.825Z" fill="black"/>
<path d="M225.502 123.416L219.017 131.816L220.742 120.674C218.877 120.047 216.856 120.059 214.999 120.708L214.864 120.758C214.283 120.982 213.683 121.151 213.072 121.263L210.88 124.11L211.291 121.444C209.014 121.47 206.786 120.778 204.925 119.465L201.01 124.572L202.094 117.537C197.81 115.039 192.991 114.307 188.564 115.919C183.26 117.849 179.683 122.723 178.424 128.755C178.056 130.557 177.216 132.231 175.992 133.603C174.767 134.976 173.2 136 171.451 136.571L171.169 136.673C165.312 138.805 162.982 147.172 165.965 155.366C168.947 163.561 176.11 168.472 181.967 166.34C183.253 165.868 184.404 165.089 185.32 164.071C186.962 162.377 188.952 161.06 191.152 160.211C193.352 159.361 195.711 158.999 198.065 159.149C200.06 159.296 202.064 159.02 203.946 158.341C205.828 157.661 207.546 156.593 208.987 155.205C210.683 153.599 212.704 152.377 214.913 151.62C217.122 150.864 219.468 150.591 221.793 150.82C223.136 150.999 224.504 150.853 225.779 150.394C231.636 148.262 233.966 139.896 230.984 131.701C229.88 128.523 227.995 125.674 225.502 123.416Z" fill="#F2F2F2"/>
<path opacity="0.03" d="M217.553 150.89C214.283 151.425 211.245 152.919 208.826 155.184C207.39 156.576 205.676 157.65 203.797 158.334C201.917 159.018 199.914 159.297 197.919 159.153C195.565 159 193.206 159.361 191.005 160.211C188.804 161.06 186.814 162.379 185.174 164.075C184.254 165.092 183.102 165.871 181.816 166.346C176.615 168.24 170.376 164.569 166.959 157.981C167.725 156.846 168.262 155.573 168.54 154.232C169.802 148.207 173.378 143.333 178.683 141.402C183.987 139.471 189.788 140.859 194.608 144.628C196.056 145.77 197.775 146.518 199.597 146.798C201.42 147.078 203.284 146.881 205.007 146.226L205.143 146.176C209.251 144.669 214.045 146.68 217.553 150.89Z" fill="black"/>
<path d="M546.51 111.906L543.28 116.095L544.142 110.54C543.211 110.223 542.202 110.228 541.274 110.552L541.209 110.576C540.918 110.685 540.619 110.77 540.313 110.829L539.221 112.245L539.434 110.94C538.298 110.954 537.187 110.609 536.258 109.954L534.309 112.505L534.871 108.992C533.877 108.364 532.755 107.965 531.588 107.825C530.42 107.685 529.236 107.808 528.122 108.183C525.478 109.146 523.693 111.575 523.085 114.577C522.902 115.478 522.482 116.314 521.869 117C521.256 117.686 520.472 118.196 519.597 118.479L519.456 118.531C516.536 119.594 515.375 123.772 516.862 127.859C518.35 131.945 521.923 134.395 524.843 133.332C525.485 133.096 526.059 132.708 526.518 132.2C527.336 131.354 528.329 130.696 529.427 130.272C530.525 129.848 531.702 129.668 532.877 129.745C533.868 129.814 534.862 129.674 535.795 129.334C536.729 128.994 537.58 128.462 538.295 127.773C539.141 126.971 540.15 126.361 541.252 125.984C542.355 125.607 543.526 125.472 544.685 125.588C545.354 125.675 546.034 125.602 546.67 125.375C549.59 124.312 550.752 120.139 549.265 116.053C548.709 114.461 547.762 113.035 546.51 111.906Z" fill="#F2F2F2"/>
<path opacity="0.03" d="M542.546 125.612C540.913 125.875 539.395 126.622 538.19 127.755C537.474 128.443 536.623 128.975 535.69 129.316C534.754 129.652 533.758 129.787 532.766 129.711C531.592 129.637 530.415 129.818 529.317 130.243C528.22 130.668 527.228 131.326 526.409 132.172C525.953 132.679 525.38 133.066 524.74 133.302C522.145 134.246 519.03 132.415 517.326 129.132C517.705 128.564 517.974 127.929 518.117 127.261C518.741 124.253 520.526 121.824 523.154 120.867C525.781 119.911 528.694 120.612 531.103 122.479C531.823 123.047 532.677 123.419 533.583 123.559C534.489 123.699 535.415 123.603 536.273 123.279L536.343 123.254C538.386 122.51 540.794 123.512 542.546 125.612Z" fill="black"/>
</g>
<defs>
<clipPath id="clip0_10_63">
<rect width="613" height="388" fill="white" transform="translate(-69 209.658) rotate(-20)"/>
</clipPath>
</defs>
</svg>
